{"title":"Stake.Land.2010.DVDSCR.XviD-MiGeR.[NOWATERMARKS]","uid":6455422,"size":651132705,"categoryP":"video","categoryS":"movies","magnet":"?xt=urn:btih:7de0e06918ea4dd40433360ed2d591b330246797&amp;dn=Stake.Land.2010.DVDSCR.XviD-MiGeR.%5BNOWATERMARKS%5D&amp;tr=udp%3A%2F%2Ftracker.openbittorrent.com%3A80&amp;tr=udp%3A%2F%2Fopen.demonii.com%3A1337&amp;tr=udp%3A%2F%2Ftracker.coppersurfer.tk%3A6969&amp;tr=udp%3A%2F%2Fexodus.desync.com%3A6969","seeders":0,"leechers":0,"uploader":"e-NeL","files":-1,"time":1307566357,"description":"DVDSCR [ NO WATERMARKS, OR TEXTS]\n\nGREETZ! AND HAVE FUN!\n--- MiGeR ---\n\n\n\nGeneral \nTitel \t\t\t\t : Stake Land\nYear \t\t\t\t : 2010\nIMDB\t\t\t\t : http://www.imdb.com/title/tt1464580/\nRating\t\t\t\t : 6.9/10\nDuration\t\t \t : 98 min\nGenre\t\t\t\t : Horror\nDirector\t\t\t : Jim Mickle\nWriters\t\t\t\t : Nick Damici, Jim Mickle\nStars\t\t\t\t : Connor Paolo, Nick Damici and Kelly McGillis\n\nMartin was a normal teenage boy before the country \ncollapsed in an empty pit of economic and political disaster. \nA vampire epidemic has swept across what is left of the nation\\'s \nabandoned towns and cities, and it\\'s up to Mister, a death dealing, \nrogue vampire hunter, to get Martin safely north to Canada, \nthe continent\\'s New Eden.\n\nSource\t\t\t\t \nFormat                           : AVI\nFormat/Info                      : Audio Video Interleave\nFile size                        : 617 MiB\nOverall bit rate                 : 877 Kbps\n\nVideo\nID                               : 0\nFormat                           : MPEG-4 Visual\nFormat profile                   : Simple@L3\nFormat settings, BVOP            : No\nFormat settings, QPel            : No\nFormat settings, GMC             : No warppoints\nFormat settings, Matrix          : Default (H.263)\nCodec ID                         : XVID\nCodec ID/Hint                    : XviD\nDuration                         : 1h 38mn\nBit rate                         : 742 Kbps\nWidth                            : 672 pixels\nHeight                           : 288 pixels\nDisplay aspect ratio             : 2.35:1\nFrame rate                       : 25.000 fps\nColor space                      : YUV\nChroma subsampling               : 4:2:0\nBit depth                        : 8 bits\nScan type                        : Progressive\nBits/(Pixel*Frame)               : 0.153\nStream size                      : 522 MiB (85%)\nWriting library                  : ZJMedia MPEG Encoder\n\nAudio\nID                               : 1\nFormat                           : MPEG Audio\nFormat version                   : Version 1\nFormat profile                   : Layer 3\nMode                             : Joint stereo\nMode extension                   : MS Stereo\nCodec ID                         : 55\nCodec ID/Hint                    : MP3\nDuration                         : 1h 38mn\nBit rate mode                    : Constant\nBit rate                         : 128 Kbps\nChannel(s)                       : 2 channels\nSampling rate                    : 44.1 KHz\nStream size                      : 90.1 MiB (15%)\nAlignment                        : Split accross interleaves\nInterleave, duration             : 1000 ms (25.00 video frames)\nInterleave, preload duration     : 750 ms\n","torrent":{"xt":"urn:btih:7de0e06918ea4dd40433360ed2d591b330246797","amp;dn":"Stake.Land.2010.DVDSCR.XviD-MiGeR.%5BNOWATERMARKS%5D","amp;tr":["udp%3A%2F%2Ftracker.openbittorrent.com%3A80","udp%3A%2F%2Fopen.demonii.com%3A1337","udp%3A%2F%2Ftracker.coppersurfer.tk%3A6969","udp%3A%2F%2Fexodus.desync.com%3A6969"],"infoHash":"7de0e06918ea4dd40433360ed2d591b330246797","infoHashBuffer":{"type":"Buffer","data":[125,224,224,105,24,234,77,212,4,51,54,14,210,213,145,179,48,36,103,151]},"announce":[],"urlList":[]}}